<svg width="130" height="130" viewBox="0 0 130 130" fill="none" xmlns="http://www.w3.org/2000/svg">
<rect width="130" height="130" fill="#F5F8FD"/>
<path d="M63.9901 48.3115C63.9901 46.761 62.3022 45.8002 60.969 46.5917L48.8074 53.8127C48.2005 54.173 47.8285 54.8266 47.8285 55.5324V70.0724C47.8285 71.6228 49.5164 72.5837 50.8496 71.7921L63.0112 64.5711C63.6181 64.2108 63.9901 63.5572 63.9901 62.8514V48.3115Z" fill="#B9D5FD"/>
<path d="M63.9901 18.4593C63.9901 16.9208 62.3255 15.9584 60.9922 16.7261L48.3255 24.019C47.7056 24.376 47.3234 25.0369 47.3234 25.7523V40.3285C47.3234 41.8671 48.988 42.8295 50.3214 42.0618L62.988 34.7689C63.608 34.4119 63.9901 33.751 63.9901 33.0356V18.4593Z" fill="#B9D5FD"/>
<path d="M38.2324 33.1057C38.2324 31.5672 36.5678 30.6048 35.2345 31.3725L22.5678 38.6654C21.9479 39.0224 21.5658 39.6833 21.5658 40.3987V85.278C21.5658 86.8165 23.2304 87.7789 24.5637 87.0112L37.2303 79.7183C37.8503 79.3614 38.2324 78.7004 38.2324 77.9851V33.1057Z" fill="#B9D5FD"/>
<path d="M66.0099 48.3115C66.0099 46.761 67.6978 45.8002 69.031 46.5917L81.1926 53.8127C81.7995 54.173 82.1715 54.8266 82.1715 55.5324V70.0724C82.1715 71.6228 80.4836 72.5837 79.1504 71.7921L66.9888 64.5711C66.3819 64.2108 66.0099 63.5572 66.0099 62.8514V48.3115Z" fill="#709FDC"/>
<path d="M66.0099 18.4821C66.0099 16.9385 67.6843 15.9768 69.0176 16.7545L107.442 39.1687C108.056 39.5271 108.434 40.1849 108.434 40.8962V84.7502C108.434 86.2938 106.76 87.2556 105.426 86.4778L93.2648 79.3835C92.6503 79.0251 92.2725 78.3673 92.2725 77.656V51.0657C92.2725 50.3628 91.9036 49.7115 91.3007 49.3502L66.9817 34.7744C66.3788 34.413 66.0099 33.7618 66.0099 33.0589V18.4821Z" fill="#709FDC"/>
<path d="M63.9788 66.6163C64.6082 66.2426 65.3915 66.2426 66.0209 66.6163L78.2651 73.8863C79.5704 74.6613 79.5704 76.5508 78.2651 77.3257L66.0209 84.5957C65.3915 84.9694 64.6082 84.9694 63.9788 84.5957L51.7346 77.3257C50.4294 76.5508 50.4294 74.6613 51.7346 73.8863L63.9788 66.6163Z" fill="#274684"/>
<path d="M37.7286 81.7424C38.3522 81.3834 39.1204 81.387 39.7406 81.7518L63.4837 95.7183C64.1081 96.0855 64.8823 96.0865 65.5076 95.7208L90.2452 81.2516C90.873 80.8844 91.6507 80.8869 92.276 81.2582L104.485 88.5073C105.8 89.288 105.788 91.1959 104.463 91.9597L65.4894 114.427C64.8735 114.782 64.1155 114.783 63.4983 114.43L25.0981 92.4875C23.757 91.7212 23.7538 89.7885 25.0924 89.0178L37.7286 81.7424Z" fill="#274684"/>
</svg>
