<svg width="130" height="130" viewBox="0 0 130 130" fill="none" xmlns="http://www.w3.org/2000/svg">
<rect width="130" height="130" fill="#F5F8FD"/>
<path d="M63.9902 48.3115C63.9902 46.761 62.3023 45.8002 60.9692 46.5917L48.8075 53.8127C48.2006 54.173 47.8286 54.8266 47.8286 55.5324V70.0724C47.8286 71.6228 49.5165 72.5837 50.8497 71.7921L63.0113 64.5711C63.6182 64.2108 63.9902 63.5572 63.9902 62.8514V48.3115Z" fill="#7DD5E9"/>
<path d="M63.9902 18.4593C63.9902 16.9208 62.3256 15.9584 60.9923 16.7261L48.3256 24.019C47.7057 24.376 47.3236 25.0369 47.3236 25.7523V40.3285C47.3236 41.8671 48.9882 42.8295 50.3215 42.0618L62.9882 34.7689C63.6081 34.4119 63.9902 33.751 63.9902 33.0356V18.4593Z" fill="#7DD5E9"/>
<path d="M38.2324 33.1058C38.2324 31.5673 36.5678 30.6049 35.2345 31.3726L22.5678 38.6655C21.9479 39.0224 21.5658 39.6834 21.5658 40.3987V85.2781C21.5658 86.8166 23.2304 87.779 24.5637 87.0113L37.2303 79.7184C37.8503 79.3614 38.2324 78.7005 38.2324 77.9851V33.1058Z" fill="#7DD5E9"/>
<path d="M66.0098 48.3115C66.0098 46.761 67.6977 45.8002 69.0308 46.5917L81.1925 53.8127C81.7994 54.173 82.1714 54.8266 82.1714 55.5324V70.0724C82.1714 71.6228 80.4835 72.5837 79.1503 71.7921L66.9887 64.5711C66.3818 64.2108 66.0098 63.5572 66.0098 62.8514V48.3115Z" fill="#0C979C"/>
<path d="M66.0098 18.4821C66.0098 16.9385 67.6842 15.9768 69.0175 16.7545L107.442 39.1687C108.056 39.5271 108.434 40.1849 108.434 40.8962V84.7502C108.434 86.2938 106.76 87.2556 105.426 86.4778L93.2646 79.3835C92.6502 79.0251 92.2724 78.3673 92.2724 77.656V51.0657C92.2724 50.3628 91.9034 49.7115 91.3006 49.3502L66.9816 34.7744C66.3787 34.413 66.0098 33.7618 66.0098 33.0589V18.4821Z" fill="#0C979C"/>
<path d="M63.9789 66.6163C64.6083 66.2426 65.3916 66.2426 66.0211 66.6163L78.2653 73.8863C79.5705 74.6612 79.5705 76.5507 78.2653 77.3257L66.0211 84.5957C65.3916 84.9694 64.6083 84.9694 63.9789 84.5957L51.7347 77.3257C50.4295 76.5507 50.4295 74.6612 51.7347 73.8863L63.9789 66.6163Z" fill="#217381"/>
<path d="M37.7288 81.7424C38.3523 81.3834 39.1206 81.387 39.7407 81.7518L63.4839 95.7183C64.1082 96.0855 64.8824 96.0865 65.5077 95.7208L90.2453 81.2516C90.8731 80.8844 91.6508 80.8869 92.2762 81.2582L104.485 88.5073C105.8 89.288 105.788 91.1959 104.463 91.9597L65.4895 114.427C64.8736 114.782 64.1156 114.783 63.4984 114.43L25.0982 92.4875C23.7571 91.7212 23.7539 89.7885 25.0925 89.0178L37.7288 81.7424Z" fill="#217381"/>
</svg>
