<svg width="405" height="100" viewBox="0 0 405 100" fill="none" xmlns="http://www.w3.org/2000/svg">
<g clip-path="url(#clip0_21_108)">
<path d="M42.4243 33.3114C42.4243 31.761 40.7364 30.8001 39.4032 31.5917L27.2416 38.8127C26.6347 39.173 26.2627 39.8266 26.2627 40.5324V55.0724C26.2627 56.6228 27.9506 57.5836 29.2837 56.7921L41.4454 49.5711C42.0522 49.2108 42.4243 48.5572 42.4243 47.8514V33.3114Z" fill="#7DD5E9"/>
<path d="M42.4243 3.45934C42.4243 1.9208 40.7597 0.958415 39.4263 1.72609L26.7597 9.01902C26.1397 9.37597 25.7576 10.0369 25.7576 10.7523V25.3286C25.7576 26.8671 27.4222 27.8295 28.7555 27.0618L41.4222 19.7689C42.0422 19.4119 42.4243 18.751 42.4243 18.0356V3.45934Z" fill="#7DD5E9"/>
<path d="M16.6667 18.1058C16.6667 16.5672 15.0021 15.6049 13.6687 16.3725L1.00207 23.6655C0.382103 24.0224 0 24.6833 0 25.3987V70.278C0 71.8166 1.6646 72.7789 2.99793 72.0113L15.6646 64.7183C16.2846 64.3614 16.6667 63.7005 16.6667 62.9851V18.1058Z" fill="#7DD5E9"/>
<path d="M44.4441 33.3114C44.4441 31.761 46.132 30.8001 47.4651 31.5917L59.6268 38.8127C60.2337 39.173 60.6057 39.8266 60.6057 40.5324V55.0724C60.6057 56.6228 58.9178 57.5836 57.5846 56.7921L45.423 49.5711C44.8161 49.2108 44.4441 48.5572 44.4441 47.8514V33.3114Z" fill="#0C979C"/>
<path d="M44.4441 3.48209C44.4441 1.93851 46.1185 0.976761 47.4518 1.75453L85.876 24.1687C86.4905 24.5271 86.8683 25.1849 86.8683 25.8962V69.7502C86.8683 71.2938 85.1939 72.2556 83.8606 71.4778L71.6989 64.3835C71.0845 64.0251 70.7067 63.3673 70.7067 62.656V36.0657C70.7067 35.3628 70.3377 34.7115 69.7349 34.3502L45.4159 19.7744C44.813 19.4131 44.4441 18.7618 44.4441 18.0589V3.48209Z" fill="#0C979C"/>
<path d="M42.4131 51.6163C43.0425 51.2426 43.8258 51.2426 44.4552 51.6163L56.6994 58.8863C58.0046 59.6613 58.0046 61.5508 56.6994 62.3257L44.4552 69.5957C43.8258 69.9694 43.0425 69.9694 42.4131 69.5957L30.1689 62.3257C28.8636 61.5508 28.8636 59.6613 30.1689 58.8863L42.4131 51.6163Z" fill="#217381"/>
<path d="M16.1629 66.7424C16.7864 66.3834 17.5547 66.387 18.1748 66.7518L41.918 80.7183C42.5424 81.0855 43.3165 81.0865 43.9418 80.7208L68.6794 66.2516C69.3072 65.8844 70.0849 65.8869 70.7103 66.2582L82.9192 73.5073C84.2342 74.2881 84.2219 76.1959 82.8969 76.9597L43.9236 99.4267C43.3078 99.7817 42.5497 99.7832 41.9325 99.4305L3.53231 77.4875C2.1912 76.7212 2.18805 74.7885 3.52666 74.0178L16.1629 66.7424Z" fill="#217381"/>
<path d="M133.805 23.6937C136.628 23.6937 139.181 24.0841 141.463 24.8649C143.805 25.6456 145.817 26.7568 147.499 28.1982C149.181 29.6396 150.472 31.3814 151.373 33.4234C152.274 35.4655 152.724 37.7177 152.724 40.1802C152.724 42.4024 152.214 44.4144 151.193 46.2162C150.172 47.958 148.79 49.3994 147.049 50.5405C149.211 51.7417 150.983 53.3934 152.364 55.4955C153.805 57.5976 154.526 60.0601 154.526 62.8829C154.526 64.8649 154.166 66.8468 153.445 68.8288C152.724 70.7508 151.583 72.5225 150.022 74.1441C148.52 75.7057 146.598 76.997 144.256 78.018C141.913 78.979 139.121 79.4595 135.877 79.4595H106.868V23.6937H133.805ZM118.22 33.3333V46.9369H133.715C135.457 46.9369 137.019 46.3063 138.4 45.045C139.781 43.7237 140.472 42.0721 140.472 40.0901C140.472 39.1291 140.292 38.2583 139.931 37.4775C139.571 36.6366 139.061 35.9159 138.4 35.3153C137.799 34.7147 137.109 34.2342 136.328 33.8739C135.547 33.5135 134.706 33.3333 133.805 33.3333H118.22ZM118.22 69.7297H135.517C137.259 69.7297 138.82 69.0991 140.202 67.8378C141.583 66.5766 142.274 64.9249 142.274 62.8829C142.274 60.9009 141.583 59.2793 140.202 58.018C138.82 56.7568 137.259 56.1261 135.517 56.1261H118.22V69.7297Z" fill="#071739"/>
<path d="M161.643 26.036C161.643 24.4144 162.334 23.003 163.715 21.8018C165.097 20.6006 166.748 20 168.67 20C170.532 20 172.154 20.6006 173.535 21.8018C174.916 23.003 175.607 24.4144 175.607 26.036C175.607 27.6577 174.916 29.0691 173.535 30.2703C172.214 31.4715 170.592 32.0721 168.67 32.0721C166.808 32.0721 165.157 31.4715 163.715 30.2703C162.334 29.0691 161.643 27.6577 161.643 26.036ZM173.986 38.9189V79.4595H163.445V38.9189H173.986Z" fill="#071739"/>
<path d="M218.498 71.1712V79.4595H182.823L182.913 71.1712L203.904 47.2072H182.823V38.9189H218.408V47.2072L197.417 71.1712H218.498Z" fill="#071739"/>
<path d="M227.135 79.4595V23.6937H240.288L266.775 62.8829V23.6937H277.856V79.4595H264.793L238.216 40.1802V79.4595H227.135Z" fill="#071739"/>
<path d="M285.381 59.1892C285.381 56.3063 285.951 53.6036 287.092 51.0811C288.293 48.5586 289.885 46.3664 291.867 44.5045C293.849 42.5826 296.161 41.0811 298.804 40C301.507 38.9189 304.36 38.3784 307.363 38.3784C310.786 38.3784 313.909 39.009 316.732 40.2703C319.555 41.4715 321.927 43.1532 323.849 45.3153C325.831 47.4174 327.242 49.8799 328.083 52.7027C328.984 55.4655 329.224 58.4384 328.804 61.6216H296.191C296.372 62.9429 296.732 64.2042 297.272 65.4054C297.873 66.5465 298.624 67.5676 299.525 68.4685C300.486 69.3694 301.627 70.0901 302.948 70.6306C304.269 71.1712 305.741 71.4414 307.363 71.4414C309.465 71.4414 311.357 70.991 313.038 70.0901C314.72 69.1892 315.981 67.958 316.822 66.3964L327.543 66.7568C326.762 68.6186 325.741 70.3604 324.48 71.982C323.218 73.6036 321.717 75.015 319.975 76.2162C318.293 77.3574 316.402 78.2883 314.299 79.009C312.197 79.6697 309.885 80 307.363 80C304.179 80 301.236 79.4595 298.534 78.3784C295.891 77.2973 293.579 75.8258 291.597 73.964C289.675 72.1021 288.143 69.9099 287.002 67.3874C285.921 64.8048 285.381 62.0721 285.381 59.1892ZM318.173 55.4955C317.633 52.6126 316.402 50.3604 314.48 48.7387C312.558 47.0571 310.185 46.2162 307.363 46.2162C304.42 46.2162 301.987 47.1471 300.065 49.009C298.203 50.8108 297.062 52.973 296.642 55.4955H318.173Z" fill="#071739"/>
<path d="M353.844 63.0631C350.481 63.0631 347.598 62.7327 345.195 62.0721C342.853 61.3513 340.931 60.4505 339.43 59.3694C337.988 58.2282 336.907 56.967 336.186 55.5856C335.526 54.1441 335.195 52.7027 335.195 51.2613C335.195 49.4595 335.676 47.7778 336.637 46.2162C337.598 44.6547 338.919 43.3033 340.601 42.1622C342.283 40.961 344.264 40.03 346.547 39.3694C348.829 38.7087 351.261 38.3784 353.844 38.3784C356.787 38.3784 359.4 38.7087 361.682 39.3694C364.024 39.97 366.006 40.8408 367.628 41.982C369.249 43.1231 370.481 44.4444 371.322 45.9459C372.162 47.3874 372.583 48.979 372.583 50.7207H360.961C360.961 49.4595 360.27 48.3784 358.889 47.4775C357.508 46.5766 355.826 46.1261 353.844 46.1261C351.502 46.1261 349.64 46.5465 348.258 47.3874C346.877 48.2282 346.186 49.3393 346.186 50.7207C346.186 52.1021 346.847 53.2132 348.168 54.0541C349.49 54.8949 351.382 55.3153 353.844 55.3153C356.967 55.3153 359.7 55.6456 362.042 56.3063C364.385 56.9069 366.337 57.7477 367.898 58.8288C369.46 59.8499 370.631 61.0811 371.412 62.5225C372.192 63.964 372.583 65.4955 372.583 67.1171C372.583 68.7988 372.132 70.4204 371.231 71.982C370.391 73.5435 369.159 74.9249 367.538 76.1261C365.916 77.3273 363.934 78.2883 361.592 79.009C359.31 79.6697 356.727 80 353.844 80C351.261 80 348.829 79.6997 346.547 79.0991C344.264 78.4384 342.283 77.5375 340.601 76.3964C338.919 75.2553 337.598 73.9339 336.637 72.4324C335.676 70.9309 335.195 69.3393 335.195 67.6577H346.727C346.727 68.9189 347.418 70 348.799 70.9009C350.24 71.8018 351.922 72.2523 353.844 72.2523C356.186 72.2523 358.048 71.8018 359.43 70.9009C360.811 70 361.502 68.9189 361.502 67.6577C361.502 66.2763 360.871 65.1652 359.61 64.3243C358.409 63.4835 356.487 63.0631 353.844 63.0631Z" fill="#071739"/>
<path d="M377.14 46.8468V38.9189H382.365V27.5676H392.906V38.9189H404.077V46.8468H392.906V62.973C392.906 65.1952 393.567 66.9069 394.888 68.1081C396.209 69.2492 397.831 69.8498 399.753 69.9099C400.413 69.9099 400.984 69.8799 401.464 69.8198C401.945 69.6997 402.215 69.6096 402.275 69.5495L404.708 78.6487C404.588 78.7087 403.957 78.8589 402.816 79.0991C401.675 79.3393 400.473 79.4595 399.212 79.4595C393.987 79.4595 389.873 78.0781 386.87 75.3153C383.927 72.4925 382.425 68.4384 382.365 63.1532V46.8468H377.14Z" fill="#071739"/>
</g>
<defs>
<clipPath id="clip0_21_108">
<rect width="404.708" height="100" fill="white"/>
</clipPath>
</defs>
</svg>
