<svg width="405" height="100" viewBox="0 0 405 100" fill="none" xmlns="http://www.w3.org/2000/svg">
<g clip-path="url(#clip0_30_2)">
<path d="M42.4243 33.3114C42.4243 31.761 40.7364 30.8001 39.4032 31.5917L27.2416 38.8127C26.6347 39.173 26.2627 39.8266 26.2627 40.5324V55.0724C26.2627 56.6228 27.9506 57.5836 29.2837 56.7921L41.4454 49.5711C42.0522 49.2108 42.4243 48.5572 42.4243 47.8514V33.3114Z" fill="#7DD5E9"/>
<path d="M42.4243 3.45934C42.4243 1.9208 40.7597 0.958415 39.4263 1.72609L26.7597 9.01902C26.1397 9.37597 25.7576 10.0369 25.7576 10.7523V25.3286C25.7576 26.8671 27.4222 27.8295 28.7555 27.0618L41.4222 19.7689C42.0422 19.4119 42.4243 18.751 42.4243 18.0356V3.45934Z" fill="#7DD5E9"/>
<path d="M16.6667 18.1058C16.6667 16.5672 15.0021 15.6049 13.6687 16.3725L1.00207 23.6655C0.382103 24.0224 0 24.6833 0 25.3987V70.278C0 71.8166 1.6646 72.7789 2.99793 72.0113L15.6646 64.7183C16.2846 64.3614 16.6667 63.7005 16.6667 62.9851V18.1058Z" fill="#7DD5E9"/>
<path d="M44.4441 33.3114C44.4441 31.761 46.132 30.8001 47.4651 31.5917L59.6268 38.8127C60.2337 39.173 60.6057 39.8266 60.6057 40.5324V55.0724C60.6057 56.6228 58.9178 57.5836 57.5846 56.7921L45.423 49.5711C44.8161 49.2108 44.4441 48.5572 44.4441 47.8514V33.3114Z" fill="#0C979C"/>
<path d="M44.4441 3.48209C44.4441 1.93851 46.1185 0.976761 47.4518 1.75453L85.876 24.1687C86.4905 24.5271 86.8683 25.1849 86.8683 25.8962V69.7503C86.8683 71.2938 85.1939 72.2556 83.8606 71.4778L71.6989 64.3835C71.0845 64.0251 70.7067 63.3673 70.7067 62.656V36.0657C70.7067 35.3628 70.3377 34.7115 69.7349 34.3502L45.4159 19.7744C44.813 19.4131 44.4441 18.7618 44.4441 18.0589V3.48209Z" fill="#0C979C"/>
<path d="M42.4131 51.6163C43.0425 51.2426 43.8258 51.2426 44.4552 51.6163L56.6994 58.8863C58.0046 59.6613 58.0046 61.5508 56.6994 62.3257L44.4552 69.5957C43.8258 69.9694 43.0425 69.9694 42.4131 69.5957L30.1689 62.3257C28.8636 61.5508 28.8636 59.6613 30.1689 58.8863L42.4131 51.6163Z" fill="#217381"/>
<path d="M16.1629 66.7424C16.7864 66.3834 17.5547 66.387 18.1748 66.7518L41.918 80.7183C42.5424 81.0855 43.3165 81.0865 43.9418 80.7208L68.6794 66.2516C69.3072 65.8844 70.0849 65.8869 70.7103 66.2582L82.9192 73.5073C84.2342 74.2881 84.2219 76.1959 82.8969 76.9597L43.9236 99.4267C43.3078 99.7817 42.5497 99.7832 41.9325 99.4305L3.53231 77.4875C2.1912 76.7212 2.18805 74.7885 3.52666 74.0178L16.1629 66.7424Z" fill="#217381"/>
<path d="M133.937 23.6937C136.76 23.6937 139.312 24.0841 141.595 24.8649C143.937 25.6456 145.949 26.7568 147.631 28.1982C149.312 29.6396 150.604 31.3814 151.505 33.4234C152.405 35.4655 152.856 37.7177 152.856 40.1802C152.856 42.4024 152.345 44.4144 151.324 46.2162C150.303 47.958 148.922 49.3994 147.18 50.5405C149.342 51.7417 151.114 53.3934 152.496 55.4955C153.937 57.5976 154.658 60.0601 154.658 62.8829C154.658 64.8649 154.297 66.8468 153.577 68.8288C152.856 70.7508 151.715 72.5225 150.153 74.1441C148.652 75.7057 146.73 76.997 144.387 78.018C142.045 78.979 139.252 79.4595 136.009 79.4595H107V23.6937H133.937ZM118.351 33.3333V46.9369H133.847C135.589 46.9369 137.15 46.3063 138.532 45.045C139.913 43.7237 140.604 42.0721 140.604 40.0901C140.604 39.1291 140.423 38.2583 140.063 37.4775C139.703 36.6366 139.192 35.9159 138.532 35.3153C137.931 34.7147 137.24 34.2342 136.459 33.8739C135.679 33.5135 134.838 33.3333 133.937 33.3333H118.351ZM118.351 69.7297H135.649C137.39 69.7297 138.952 69.0991 140.333 67.8378C141.715 66.5766 142.405 64.9249 142.405 62.8829C142.405 60.9009 141.715 59.2793 140.333 58.018C138.952 56.7568 137.39 56.1261 135.649 56.1261H118.351V69.7297Z" fill="white"/>
<path d="M161.775 26.036C161.775 24.4144 162.465 23.003 163.847 21.8018C165.228 20.6006 166.88 20 168.802 20C170.664 20 172.285 20.6006 173.667 21.8018C175.048 23.003 175.739 24.4144 175.739 26.036C175.739 27.6577 175.048 29.0691 173.667 30.2703C172.345 31.4715 170.724 32.0721 168.802 32.0721C166.94 32.0721 165.288 31.4715 163.847 30.2703C162.465 29.0691 161.775 27.6577 161.775 26.036ZM174.117 38.9189V79.4595H163.577V38.9189H174.117Z" fill="white"/>
<path d="M218.63 71.1712V79.4595H182.954L183.044 71.1712L204.035 47.2072H182.954V38.9189H218.54V47.2072L197.549 71.1712H218.63Z" fill="white"/>
<path d="M227.267 79.4595V23.6937H240.42L266.906 62.8829V23.6937H277.987V79.4595H264.924L238.348 40.1802V79.4595H227.267Z" fill="white"/>
<path d="M285.512 59.1892C285.512 56.3063 286.083 53.6036 287.224 51.0811C288.425 48.5586 290.017 46.3664 291.999 44.5045C293.981 42.5826 296.293 41.0811 298.936 40C301.638 38.9189 304.491 38.3784 307.494 38.3784C310.918 38.3784 314.041 39.009 316.863 40.2703C319.686 41.4715 322.059 43.1532 323.981 45.3153C325.963 47.4174 327.374 49.8799 328.215 52.7027C329.116 55.4655 329.356 58.4384 328.936 61.6216H296.323C296.503 62.9429 296.863 64.2042 297.404 65.4054C298.005 66.5465 298.755 67.5676 299.656 68.4685C300.617 69.3694 301.758 70.0901 303.08 70.6306C304.401 71.1712 305.872 71.4414 307.494 71.4414C309.596 71.4414 311.488 70.991 313.17 70.0901C314.851 69.1892 316.113 67.958 316.954 66.3964L327.674 66.7568C326.894 68.6186 325.872 70.3604 324.611 71.982C323.35 73.6036 321.848 75.015 320.107 76.2162C318.425 77.3574 316.533 78.2883 314.431 79.009C312.329 79.6697 310.017 80 307.494 80C304.311 80 301.368 79.4595 298.665 78.3784C296.023 77.2973 293.71 75.8258 291.728 73.964C289.806 72.1021 288.275 69.9099 287.134 67.3874C286.053 64.8048 285.512 62.0721 285.512 59.1892ZM318.305 55.4955C317.764 52.6126 316.533 50.3604 314.611 48.7387C312.689 47.0571 310.317 46.2162 307.494 46.2162C304.551 46.2162 302.119 47.1471 300.197 49.009C298.335 50.8108 297.194 52.973 296.773 55.4955H318.305Z" fill="white"/>
<path d="M353.976 63.0631C350.612 63.0631 347.729 62.7327 345.327 62.0721C342.985 61.3513 341.063 60.4505 339.561 59.3694C338.12 58.2282 337.039 56.967 336.318 55.5856C335.657 54.1441 335.327 52.7027 335.327 51.2613C335.327 49.4595 335.807 47.7778 336.768 46.2162C337.729 44.6547 339.051 43.3033 340.732 42.1622C342.414 40.961 344.396 40.03 346.678 39.3694C348.961 38.7087 351.393 38.3784 353.976 38.3784C356.919 38.3784 359.531 38.7087 361.814 39.3694C364.156 39.97 366.138 40.8408 367.759 41.982C369.381 43.1231 370.612 44.4444 371.453 45.9459C372.294 47.3874 372.714 48.979 372.714 50.7207H361.093C361.093 49.4595 360.402 48.3784 359.021 47.4775C357.639 46.5766 355.958 46.1261 353.976 46.1261C351.633 46.1261 349.771 46.5465 348.39 47.3874C347.009 48.2282 346.318 49.3393 346.318 50.7207C346.318 52.1021 346.979 53.2132 348.3 54.0541C349.621 54.8949 351.513 55.3153 353.976 55.3153C357.099 55.3153 359.832 55.6456 362.174 56.3063C364.516 56.9069 366.468 57.7477 368.03 58.8288C369.591 59.8499 370.762 61.0811 371.543 62.5225C372.324 63.964 372.714 65.4955 372.714 67.1171C372.714 68.7988 372.264 70.4204 371.363 71.982C370.522 73.5435 369.291 74.9249 367.669 76.1261C366.048 77.3273 364.066 78.2883 361.723 79.009C359.441 79.6697 356.859 80 353.976 80C351.393 80 348.961 79.6997 346.678 79.0991C344.396 78.4384 342.414 77.5375 340.732 76.3964C339.051 75.2553 337.729 73.9339 336.768 72.4324C335.807 70.9309 335.327 69.3393 335.327 67.6577H346.859C346.859 68.9189 347.549 70 348.931 70.9009C350.372 71.8018 352.054 72.2523 353.976 72.2523C356.318 72.2523 358.18 71.8018 359.561 70.9009C360.943 70 361.633 68.9189 361.633 67.6577C361.633 66.2763 361.003 65.1652 359.741 64.3243C358.54 63.4835 356.618 63.0631 353.976 63.0631Z" fill="white"/>
<path d="M377.272 46.8468V38.9189H382.497V27.5676H393.037V38.9189H404.209V46.8468H393.037V62.973C393.037 65.1952 393.698 66.9069 395.019 68.1081C396.341 69.2492 397.962 69.8498 399.884 69.9099C400.545 69.9099 401.116 69.8799 401.596 69.8198C402.076 69.6997 402.347 69.6096 402.407 69.5495L404.839 78.6487C404.719 78.7087 404.089 78.8589 402.947 79.0991C401.806 79.3393 400.605 79.4595 399.344 79.4595C394.119 79.4595 390.004 78.0781 387.001 75.3153C384.059 72.4925 382.557 68.4384 382.497 63.1532V46.8468H377.272Z" fill="white"/>
</g>
<defs>
<clipPath id="clip0_30_2">
<rect width="404.839" height="100" fill="white"/>
</clipPath>
</defs>
</svg>
