<svg width="100" height="113" viewBox="0 0 100 113" fill="none" xmlns="http://www.w3.org/2000/svg">
<g clip-path="url(#clip0_30_24)">
<path d="M48.8375 36.642C48.8375 34.8585 46.8944 33.7533 45.3597 34.6639L31.3596 42.9699C30.661 43.3844 30.2327 44.1362 30.2327 44.9481V61.673C30.2327 63.4564 32.1758 64.5616 33.7105 63.6511L47.7106 55.345C48.4092 54.9305 48.8375 54.1788 48.8375 53.3669V36.642Z" fill="#7DD5E9"/>
<path d="M48.8375 2.30397C48.8375 0.534233 46.9212 -0.572772 45.3863 0.310264L30.8049 8.69911C30.0912 9.1097 29.6513 9.86993 29.6513 10.6928V27.4595C29.6513 29.2292 31.5676 30.3363 33.1024 29.4532L47.6839 21.0644C48.3976 20.6538 48.8375 19.8936 48.8375 19.0707V2.30397Z" fill="#7DD5E9"/>
<path d="M19.1861 19.1514C19.1861 17.3816 17.2699 16.2746 15.735 17.1577L1.15355 25.5465C0.439865 25.9571 0 26.7173 0 27.5402V79.1636C0 80.9334 1.91623 82.0404 3.45112 81.1573L18.0326 72.7685C18.7463 72.3579 19.1861 71.5977 19.1861 70.7748V19.1514Z" fill="#7DD5E9"/>
<path d="M51.1626 36.642C51.1626 34.8585 53.1056 33.7533 54.6403 34.6639L68.6404 42.9699C69.3391 43.3844 69.7673 44.1362 69.7673 44.9481V61.673C69.7673 63.4564 67.8243 64.5616 66.2895 63.6511L52.2895 55.345C51.5908 54.9305 51.1626 54.1788 51.1626 53.3669V36.642Z" fill="#0C979C"/>
<path d="M51.1626 2.33014C51.1626 0.554599 53.0901 -0.55167 54.625 0.342973L98.8577 26.1253C99.5651 26.5376 100 27.2943 100 28.1125V78.5565C100 80.3321 98.0724 81.4383 96.5376 80.5437L82.5375 72.3834C81.8302 71.9711 81.3953 71.2144 81.3953 70.3962V39.8101C81.3953 39.0016 80.9705 38.2525 80.2765 37.8369L52.2813 21.0707C51.5873 20.6551 51.1626 19.9059 51.1626 19.0975V2.33014Z" fill="#0C979C"/>
<path d="M48.8245 57.6976C49.5491 57.2677 50.4508 57.2677 51.1754 57.6976L65.2705 66.0601C66.7731 66.9515 66.773 69.1249 65.2705 70.0163L51.1754 78.3788C50.4508 78.8087 49.5491 78.8087 48.8245 78.3788L34.7294 70.0163C33.2269 69.1249 33.2269 66.9515 34.7294 66.0601L48.8245 57.6976Z" fill="#217381"/>
<path d="M18.6062 75.0967C19.324 74.6837 20.2084 74.6879 20.9223 75.1075L48.2546 91.1727C48.9734 91.5952 49.8646 91.5963 50.5844 91.1756L79.0616 74.5321C79.7843 74.1097 80.6795 74.1127 81.3994 74.5398L95.4539 82.8781C96.9677 83.7763 96.9535 85.9708 95.4283 86.8494L50.5635 112.693C49.8545 113.101 48.9819 113.103 48.2714 112.697L4.06628 87.4565C2.52244 86.575 2.51882 84.3519 4.05978 83.4654L18.6062 75.0967Z" fill="#217381"/>
</g>
<defs>
<clipPath id="clip0_30_24">
<rect width="100" height="113" fill="white"/>
</clipPath>
</defs>
</svg>
