<svg width="298" height="60" viewBox="0 0 298 60" fill="none" xmlns="http://www.w3.org/2000/svg">
<g clip-path="url(#clip0_30_28)">
<path d="M26.9369 3.69369C29.7598 3.69369 32.3123 4.08409 34.5946 4.86487C36.9369 5.64564 38.949 6.75676 40.6306 8.1982C42.3123 9.63964 43.6036 11.3814 44.5045 13.4234C45.4054 15.4655 45.8559 17.7177 45.8559 20.1802C45.8559 22.4024 45.3454 24.4144 44.3243 26.2162C43.3033 27.958 41.9219 29.3994 40.1802 30.5405C42.3423 31.7417 44.1141 33.3934 45.4955 35.4955C46.9369 37.5976 47.6577 40.0601 47.6577 42.8829C47.6577 44.8649 47.2973 46.8468 46.5766 48.8288C45.8559 50.7508 44.7147 52.5225 43.1532 54.1441C41.6517 55.7057 39.7297 56.997 37.3874 58.018C35.045 58.979 32.2523 59.4595 29.009 59.4595H0V3.69369H26.9369ZM11.3514 13.3333V26.9369H26.8468C28.5886 26.9369 30.1502 26.3063 31.5315 25.045C32.9129 23.7237 33.6036 22.0721 33.6036 20.0901C33.6036 19.1291 33.4234 18.2583 33.0631 17.4775C32.7027 16.6366 32.1922 15.9159 31.5315 15.3153C30.9309 14.7147 30.2402 14.2342 29.4595 13.8739C28.6787 13.5135 27.8378 13.3333 26.9369 13.3333H11.3514ZM11.3514 49.7297H28.6487C30.3904 49.7297 31.952 49.0991 33.3333 47.8378C34.7147 46.5766 35.4054 44.9249 35.4054 42.8829C35.4054 40.9009 34.7147 39.2793 33.3333 38.018C31.952 36.7568 30.3904 36.1261 28.6487 36.1261H11.3514V49.7297Z" fill="#071739"/>
<path d="M54.7748 6.03603C54.7748 4.41441 55.4655 3.003 56.8468 1.8018C58.2282 0.6006 59.8799 0 61.8018 0C63.6637 0 65.2853 0.6006 66.6667 1.8018C68.0481 3.003 68.7387 4.41441 68.7387 6.03603C68.7387 7.65766 68.0481 9.06907 66.6667 10.2703C65.3453 11.4715 63.7237 12.0721 61.8018 12.0721C59.9399 12.0721 58.2883 11.4715 56.8468 10.2703C55.4655 9.06907 54.7748 7.65766 54.7748 6.03603ZM67.1171 18.9189V59.4595H56.5766V18.9189H67.1171Z" fill="#071739"/>
<path d="M111.63 51.1712V59.4595H75.9544L76.0445 51.1712L97.0355 27.2072H75.9544V18.9189H111.54V27.2072L90.549 51.1712H111.63Z" fill="#071739"/>
<path d="M120.267 59.4595V3.69369H133.42L159.906 42.8829V3.69369H170.987V59.4595H157.924L131.348 20.1802V59.4595H120.267Z" fill="#071739"/>
<path d="M178.512 39.1892C178.512 36.3063 179.083 33.6036 180.224 31.0811C181.425 28.5586 183.017 26.3664 184.999 24.5045C186.981 22.5826 189.293 21.0811 191.936 20C194.638 18.9189 197.491 18.3784 200.494 18.3784C203.918 18.3784 207.041 19.009 209.863 20.2703C212.686 21.4715 215.059 23.1532 216.981 25.3153C218.963 27.4174 220.374 29.8799 221.215 32.7027C222.116 35.4655 222.356 38.4384 221.936 41.6216H189.323C189.503 42.9429 189.863 44.2042 190.404 45.4054C191.005 46.5465 191.755 47.5676 192.656 48.4685C193.617 49.3694 194.758 50.0901 196.08 50.6306C197.401 51.1712 198.872 51.4414 200.494 51.4414C202.596 51.4414 204.488 50.991 206.17 50.0901C207.851 49.1892 209.113 47.958 209.954 46.3964L220.674 46.7568C219.894 48.6186 218.872 50.3604 217.611 51.982C216.35 53.6036 214.848 55.015 213.107 56.2162C211.425 57.3574 209.533 58.2883 207.431 59.009C205.329 59.6697 203.017 60 200.494 60C197.311 60 194.368 59.4595 191.665 58.3784C189.023 57.2973 186.71 55.8258 184.728 53.964C182.806 52.1021 181.275 49.9099 180.134 47.3874C179.053 44.8048 178.512 42.0721 178.512 39.1892ZM211.305 35.4955C210.764 32.6126 209.533 30.3604 207.611 28.7387C205.689 27.0571 203.317 26.2162 200.494 26.2162C197.551 26.2162 195.119 27.1471 193.197 29.009C191.335 30.8108 190.194 32.973 189.773 35.4955H211.305Z" fill="#071739"/>
<path d="M246.976 43.0631C243.612 43.0631 240.729 42.7327 238.327 42.0721C235.985 41.3514 234.063 40.4504 232.561 39.3694C231.12 38.2282 230.039 36.967 229.318 35.5856C228.657 34.1441 228.327 32.7027 228.327 31.2613C228.327 29.4595 228.808 27.7778 229.768 26.2162C230.729 24.6547 232.051 23.3033 233.732 22.1622C235.414 20.961 237.396 20.03 239.678 19.3694C241.961 18.7087 244.393 18.3784 246.976 18.3784C249.919 18.3784 252.531 18.7087 254.813 19.3694C257.156 19.97 259.138 20.8408 260.759 21.982C262.381 23.1231 263.612 24.4444 264.453 25.9459C265.294 27.3874 265.714 28.979 265.714 30.7207H254.093C254.093 29.4595 253.402 28.3784 252.021 27.4775C250.639 26.5766 248.958 26.1261 246.976 26.1261C244.633 26.1261 242.771 26.5465 241.39 27.3874C240.009 28.2282 239.318 29.3393 239.318 30.7207C239.318 32.1021 239.979 33.2132 241.3 34.0541C242.621 34.8949 244.513 35.3153 246.976 35.3153C250.099 35.3153 252.832 35.6456 255.174 36.3063C257.516 36.9069 259.468 37.7477 261.03 38.8288C262.591 39.8499 263.762 41.0811 264.543 42.5225C265.324 43.964 265.714 45.4955 265.714 47.1171C265.714 48.7988 265.264 50.4204 264.363 51.982C263.522 53.5435 262.291 54.9249 260.669 56.1261C259.048 57.3273 257.066 58.2883 254.723 59.009C252.441 59.6697 249.859 60 246.976 60C244.393 60 241.961 59.6997 239.678 59.0991C237.396 58.4384 235.414 57.5375 233.732 56.3964C232.051 55.2553 230.729 53.9339 229.768 52.4324C228.808 50.9309 228.327 49.3393 228.327 47.6577H239.859C239.859 48.9189 240.549 50 241.931 50.9009C243.372 51.8018 245.054 52.2523 246.976 52.2523C249.318 52.2523 251.18 51.8018 252.561 50.9009C253.943 50 254.633 48.9189 254.633 47.6577C254.633 46.2763 254.003 45.1652 252.741 44.3243C251.54 43.4835 249.618 43.0631 246.976 43.0631Z" fill="#071739"/>
<path d="M270.272 26.8468V18.9189H275.497V7.56757H286.037V18.9189H297.209V26.8468H286.037V42.973C286.037 45.1952 286.698 46.9069 288.019 48.1081C289.341 49.2493 290.962 49.8498 292.884 49.9099C293.545 49.9099 294.116 49.8799 294.596 49.8198C295.077 49.6997 295.347 49.6096 295.407 49.5496L297.839 58.6487C297.719 58.7087 297.089 58.8589 295.947 59.0991C294.806 59.3393 293.605 59.4595 292.344 59.4595C287.119 59.4595 283.004 58.0781 280.001 55.3153C277.058 52.4925 275.557 48.4384 275.497 43.1532V26.8468H270.272Z" fill="#071739"/>
</g>
<defs>
<clipPath id="clip0_30_28">
<rect width="297.839" height="60" fill="white"/>
</clipPath>
</defs>
</svg>
