<svg width="298" height="193" viewBox="0 0 298 193" fill="none" xmlns="http://www.w3.org/2000/svg">
<g clip-path="url(#clip0_21_134)">
<path d="M147.837 36.642C147.837 34.8585 145.894 33.7533 144.36 34.6639L130.36 42.9699C129.661 43.3844 129.233 44.1362 129.233 44.9481V61.673C129.233 63.4564 131.176 64.5616 132.71 63.6511L146.711 55.345C147.409 54.9305 147.837 54.1788 147.837 53.3669V36.642Z" fill="#7DD5E9"/>
<path d="M147.837 2.30397C147.837 0.534233 145.921 -0.572772 144.386 0.310264L129.805 8.69911C129.091 9.1097 128.651 9.86993 128.651 10.6928V27.4595C128.651 29.2292 130.568 30.3363 132.102 29.4532L146.684 21.0644C147.398 20.6538 147.837 19.8936 147.837 19.0707V2.30397Z" fill="#7DD5E9"/>
<path d="M118.186 19.1514C118.186 17.3816 116.27 16.2746 114.735 17.1577L100.154 25.5465C99.4399 25.9571 99 26.7173 99 27.5402V79.1636C99 80.9334 100.916 82.0404 102.451 81.1573L117.033 72.7685C117.746 72.3579 118.186 71.5977 118.186 70.7748V19.1514Z" fill="#7DD5E9"/>
<path d="M150.163 36.642C150.163 34.8585 152.106 33.7533 153.64 34.6639L167.64 42.9699C168.339 43.3844 168.767 44.1362 168.767 44.9481V61.673C168.767 63.4564 166.824 64.5616 165.29 63.6511L151.289 55.345C150.591 54.9305 150.163 54.1788 150.163 53.3669V36.642Z" fill="#0C979C"/>
<path d="M150.163 2.33014C150.163 0.554599 152.09 -0.55167 153.625 0.342973L197.858 26.1253C198.565 26.5376 199 27.2943 199 28.1125V78.5565C199 80.3321 197.072 81.4383 195.538 80.5437L181.538 72.3834C180.83 71.9711 180.395 71.2144 180.395 70.3962V39.8101C180.395 39.0016 179.971 38.2525 179.277 37.8369L151.281 21.0707C150.587 20.6551 150.163 19.9059 150.163 19.0975V2.33014Z" fill="#0C979C"/>
<path d="M147.825 57.6976C148.549 57.2677 149.451 57.2677 150.175 57.6976L164.271 66.0601C165.773 66.9515 165.773 69.1249 164.271 70.0163L150.175 78.3788C149.451 78.8087 148.549 78.8087 147.825 78.3788L133.729 70.0163C132.227 69.1249 132.227 66.9515 133.729 66.0601L147.825 57.6976Z" fill="#217381"/>
<path d="M117.606 75.0967C118.324 74.6837 119.208 74.6879 119.922 75.1075L147.255 91.1727C147.973 91.5952 148.865 91.5963 149.584 91.1756L178.062 74.5321C178.784 74.1097 179.679 74.1127 180.399 74.5398L194.454 82.8781C195.968 83.7763 195.954 85.9708 194.428 86.8494L149.563 112.693C148.855 113.101 147.982 113.103 147.271 112.697L103.066 87.4565C101.522 86.575 101.519 84.3519 103.06 83.4654L117.606 75.0967Z" fill="#217381"/>
<path d="M26.9369 136.694C29.7598 136.694 32.3123 137.084 34.5946 137.865C36.9369 138.646 38.949 139.757 40.6306 141.198C42.3123 142.64 43.6036 144.381 44.5045 146.423C45.4054 148.465 45.8559 150.718 45.8559 153.18C45.8559 155.402 45.3453 157.414 44.3243 159.216C43.3033 160.958 41.9219 162.399 40.1802 163.541C42.3424 164.742 44.1141 166.393 45.4955 168.495C46.9369 170.598 47.6577 173.06 47.6577 175.883C47.6577 177.865 47.2973 179.847 46.5766 181.829C45.8559 183.751 44.7147 185.523 43.1532 187.144C41.6517 188.706 39.7297 189.997 37.3874 191.018C35.0451 191.979 32.2523 192.459 29.009 192.459H0V136.694H26.9369ZM11.3514 146.333V159.937H26.8468C28.5886 159.937 30.1502 159.306 31.5315 158.045C32.9129 156.724 33.6036 155.072 33.6036 153.09C33.6036 152.129 33.4234 151.258 33.0631 150.477C32.7027 149.637 32.1922 148.916 31.5315 148.315C30.9309 147.715 30.2402 147.234 29.4595 146.874C28.6787 146.514 27.8378 146.333 26.9369 146.333H11.3514ZM11.3514 182.73H28.6487C30.3904 182.73 31.952 182.099 33.3333 180.838C34.7147 179.577 35.4054 177.925 35.4054 175.883C35.4054 173.901 34.7147 172.279 33.3333 171.018C31.952 169.757 30.3904 169.126 28.6487 169.126H11.3514V182.73Z" fill="white"/>
<path d="M54.7748 139.036C54.7748 137.414 55.4655 136.003 56.8469 134.802C58.2282 133.601 59.8799 133 61.8018 133C63.6637 133 65.2853 133.601 66.6667 134.802C68.048 136.003 68.7387 137.414 68.7387 139.036C68.7387 140.658 68.048 142.069 66.6667 143.27C65.3454 144.471 63.7237 145.072 61.8018 145.072C59.9399 145.072 58.2883 144.471 56.8469 143.27C55.4655 142.069 54.7748 140.658 54.7748 139.036ZM67.1171 151.919V192.459H56.5766V151.919H67.1171Z" fill="white"/>
<path d="M111.63 184.171V192.459H75.9544L76.0445 184.171L97.0355 160.207H75.9544V151.919H111.54V160.207L90.549 184.171H111.63Z" fill="white"/>
<path d="M120.267 192.459V136.694H133.42L159.906 175.883V136.694H170.987V192.459H157.924L131.348 153.18V192.459H120.267Z" fill="white"/>
<path d="M178.512 172.189C178.512 169.306 179.083 166.604 180.224 164.081C181.425 161.559 183.017 159.366 184.999 157.505C186.981 155.583 189.293 154.081 191.936 153C194.638 151.919 197.491 151.378 200.494 151.378C203.918 151.378 207.041 152.009 209.863 153.27C212.686 154.471 215.059 156.153 216.981 158.315C218.963 160.417 220.374 162.88 221.215 165.703C222.116 168.465 222.356 171.438 221.936 174.622H189.323C189.503 175.943 189.863 177.204 190.404 178.405C191.005 179.547 191.755 180.568 192.656 181.468C193.617 182.369 194.758 183.09 196.08 183.631C197.401 184.171 198.872 184.441 200.494 184.441C202.596 184.441 204.488 183.991 206.17 183.09C207.851 182.189 209.113 180.958 209.954 179.396L220.674 179.757C219.894 181.619 218.872 183.36 217.611 184.982C216.35 186.604 214.848 188.015 213.107 189.216C211.425 190.357 209.533 191.288 207.431 192.009C205.329 192.67 203.017 193 200.494 193C197.311 193 194.368 192.459 191.665 191.378C189.023 190.297 186.71 188.826 184.728 186.964C182.806 185.102 181.275 182.91 180.134 180.387C179.053 177.805 178.512 175.072 178.512 172.189ZM211.305 168.495C210.764 165.613 209.533 163.36 207.611 161.739C205.689 160.057 203.317 159.216 200.494 159.216C197.551 159.216 195.119 160.147 193.197 162.009C191.335 163.811 190.194 165.973 189.773 168.495H211.305Z" fill="white"/>
<path d="M246.976 176.063C243.612 176.063 240.729 175.733 238.327 175.072C235.985 174.351 234.063 173.45 232.561 172.369C231.12 171.228 230.039 169.967 229.318 168.586C228.657 167.144 228.327 165.703 228.327 164.261C228.327 162.459 228.807 160.778 229.768 159.216C230.729 157.655 232.051 156.303 233.732 155.162C235.414 153.961 237.396 153.03 239.678 152.369C241.961 151.709 244.393 151.378 246.976 151.378C249.919 151.378 252.531 151.709 254.814 152.369C257.156 152.97 259.138 153.841 260.759 154.982C262.381 156.123 263.612 157.444 264.453 158.946C265.294 160.387 265.714 161.979 265.714 163.721H254.093C254.093 162.459 253.402 161.378 252.021 160.477C250.639 159.577 248.958 159.126 246.976 159.126C244.633 159.126 242.771 159.547 241.39 160.387C240.009 161.228 239.318 162.339 239.318 163.721C239.318 165.102 239.979 166.213 241.3 167.054C242.621 167.895 244.513 168.315 246.976 168.315C250.099 168.315 252.832 168.646 255.174 169.306C257.516 169.907 259.468 170.748 261.03 171.829C262.591 172.85 263.762 174.081 264.543 175.523C265.324 176.964 265.714 178.495 265.714 180.117C265.714 181.799 265.264 183.42 264.363 184.982C263.522 186.544 262.291 187.925 260.669 189.126C259.048 190.327 257.066 191.288 254.723 192.009C252.441 192.67 249.859 193 246.976 193C244.393 193 241.961 192.7 239.678 192.099C237.396 191.438 235.414 190.538 233.732 189.396C232.051 188.255 230.729 186.934 229.768 185.432C228.807 183.931 228.327 182.339 228.327 180.658H239.859C239.859 181.919 240.549 183 241.931 183.901C243.372 184.802 245.054 185.252 246.976 185.252C249.318 185.252 251.18 184.802 252.561 183.901C253.943 183 254.633 181.919 254.633 180.658C254.633 179.276 254.003 178.165 252.741 177.324C251.54 176.483 249.618 176.063 246.976 176.063Z" fill="white"/>
<path d="M270.272 159.847V151.919H275.497V140.568H286.037V151.919H297.209V159.847H286.037V175.973C286.037 178.195 286.698 179.907 288.019 181.108C289.341 182.249 290.962 182.85 292.884 182.91C293.545 182.91 294.116 182.88 294.596 182.82C295.077 182.7 295.347 182.61 295.407 182.55L297.839 191.649C297.719 191.709 297.089 191.859 295.947 192.099C294.806 192.339 293.605 192.459 292.344 192.459C287.119 192.459 283.004 191.078 280.001 188.315C277.058 185.492 275.557 181.438 275.497 176.153V159.847H270.272Z" fill="white"/>
</g>
<defs>
<clipPath id="clip0_21_134">
<rect width="297.839" height="193" fill="white"/>
</clipPath>
</defs>
</svg>
